<svg width="170" className="logo"
            viewBox="0 0 284 101" xmlns="http://www.w3.org/2000/svg"
          >
                                <path d="M282.608,34.533L283.46,34.87C281.58,39.13 280.29,41.98 279.84,46.35L249.98,46.35L249.98,45.27L250.27,45.27C252.34,45.27 254.47,43.28 254.47,40.55L254.47,12.03C254.47,9.3 252.34,7.31 250.27,7.31L249.37,7.31L249.37,6.23L279.89,6.23L279.89,7.14C279.89,10.49 280.17,13.68 280.84,16.63L279.83,16.86C276.881,11.17 270.243,7.373 265.597,7.321C263.381,7.359 261.35,9.395 261.35,12.04L261.35,40.56C261.35,43.11 263.19,45.25 265.77,45.25L267.92,45.25C269.76,45.25 275.829,43.17 282.608,34.533ZM282.608,34.533L282.6,34.53L282.61,34.53C282.609,34.531 282.608,34.532 282.608,34.533ZM277.38,7.32L270.22,7.32C274.17,8.6 276.49,10.67 278.56,13C277.99,10.84 277.6,8.91 277.38,7.32ZM253.144,45.26L260.97,45.26C259.17,43.84 258.67,43.16 258.67,41.57L258.67,11.01C258.67,9.93 258.9,9.19 259.57,8.68L261.36,7.32L253.3,7.32C253.3,7.32 254.37,8.41 254.84,9.19C255.13,9.68 255.54,10.81 255.54,11.75L255.54,41.29C255.54,42.935 254.814,44.074 253.144,45.26ZM277.2,45.27C277.71,43.34 280.69,38.36 283.13,35.29C278.93,40.57 274.02,45.25 270.39,45.27L277.2,45.27ZM244.158,34.533L245.01,34.87C243.13,39.13 241.84,41.98 241.39,46.35L211.53,46.35L211.53,45.27L211.82,45.27C213.89,45.27 216.02,43.28 216.02,40.55L216.02,12.03C216.02,9.3 213.89,7.31 211.82,7.31L210.92,7.31L210.92,6.23L241.44,6.23L241.44,7.14C241.44,10.49 241.72,13.68 242.39,16.63L241.38,16.86C238.44,11.17 231.783,7.373 227.147,7.321C224.931,7.359 222.9,9.395 222.9,12.04L222.9,40.56C222.9,43.11 224.74,45.25 227.32,45.25L229.47,45.25C231.31,45.25 237.379,43.17 244.158,34.533ZM244.158,34.533L244.15,34.53L244.16,34.53C244.159,34.531 244.158,34.532 244.158,34.533ZM238.74,45.27C239.26,43.34 242.24,38.36 244.68,35.29C240.48,40.57 235.57,45.25 231.94,45.27L238.74,45.27ZM214.694,45.26L222.52,45.26C220.72,43.84 220.22,43.16 220.22,41.57L220.22,11.01C220.22,9.93 220.45,9.19 221.12,8.68L222.91,7.32L214.85,7.32C214.85,7.32 215.92,8.41 216.39,9.19C216.68,9.68 217.09,10.81 217.09,11.75L217.09,41.29C217.09,42.935 216.364,44.074 214.694,45.26ZM238.93,7.32L231.76,7.32C235.71,8.6 238.03,10.67 240.1,13C239.54,10.84 239.15,8.91 238.93,7.32ZM17.88,45.21C19.71,45.21 25.76,43.17 32.54,34.53L33.39,34.87C31.51,39.13 30.22,41.97 29.77,46.34L0,46.34L0,45.26L0.91,45.26C3.01,45.26 6.39,43.27 6.39,40.54L6.39,12.04C6.39,9.31 4.23,7.32 2.12,7.32L1.21,7.32L1.21,6.24L18.21,6.24L18.21,7.32L17.77,7.32C15.49,7.32 13.39,9.37 13.39,12.04L13.39,40.56C13.39,43.12 15.27,45.22 17.89,45.22L17.88,45.21ZM7.04,9.5C7.39,10.32 7.47,11.02 7.47,11.76L7.47,41.3C7.47,42.95 6.73,44.08 5.02,45.28L12.99,45.28C11.17,43.86 10.66,43.18 10.66,41.59L10.66,11.01C10.66,9.93 10.89,9.19 11.57,8.68L13.39,7.32L5.19,7.32C5.19,7.32 6.5,8.25 7.04,9.5ZM27.12,45.27C27.63,43.34 30.62,38.36 33.05,35.29C28.86,40.57 23.94,45.25 20.31,45.27L27.12,45.27ZM33.26,45.27C34.81,45.27 35.72,44.42 37.11,42.83C39.12,40.5 39.92,38.57 40.59,36.98L53.47,5.05L66.77,36.64C69.09,42.38 71.31,45.28 73.32,45.28L75.07,45.28L75.07,46.36L55.34,46.36L55.34,45.28L56.94,45.28C59.56,44.75 61.07,43.92 61.64,41.96C61.89,41.11 61.01,38.97 60.8,38.46L58.12,31.81L43.85,31.81L41.48,37.49C41.07,38.46 40.86,39.31 40.86,39.99C40.86,43.23 42.1,45.27 44.41,45.27L45.64,45.27L45.64,46.35L33.26,46.35L33.26,45.27ZM61.77,38.23C61.97,38.68 62.77,40.95 62.56,41.88C62.27,43.2 62.06,44.37 59.86,45.28L69.24,45.28C67.38,43.75 66.1,41.53 64.86,38.46L52.64,9.6L51.09,13.24L61.76,38.24L61.77,38.23ZM57.5,30.48L50.58,14.54L44.35,30.48L57.5,30.48ZM40.48,45.26C40.16,44.35 39.83,43.6 39.83,42.86C39.83,42.24 39.42,41.58 39.85,40.6C38.8,43.02 37.57,43.9 36.13,45.26L40.48,45.26ZM78.76,46.36L78.76,45.27L79.64,45.27C81.66,45.27 83.74,43.28 83.74,40.55L83.74,12.04C83.74,9.31 81.66,7.32 79.64,7.32L79.35,7.32L79.35,6.24L96.27,6.24C100.7,6.24 104.42,6.64 107.71,8.63C114.11,12.55 117.5,18.69 117.5,26.3C117.5,33.17 114.71,38.68 109.08,43.12C106.23,45.33 102.07,46.81 98.24,46.81C96.65,46.81 94.79,46.36 92.33,46.36L78.76,46.36ZM84.03,9.2C84.43,9.88 84.8,10.56 84.78,11.76L84.78,41.3C84.78,42.95 84.07,44.08 82.43,45.28L90.09,45.28C88.34,43.86 87.85,43.18 87.85,41.59L87.85,11.01C87.85,9.93 88.07,9.19 88.73,8.68L90.48,7.32L82.6,7.32C82.6,7.32 83.64,8.51 84.04,9.19L84.03,9.2ZM114.71,26.07C114.71,18 111.21,11.53 105.46,8.52C109.4,11.59 111.42,17.44 111.42,26.02C111.42,34.6 109.61,40.34 105.51,44.14C111.31,40.45 114.7,33.97 114.7,26.08L114.71,26.07ZM97.91,45.73C105.95,45.73 110.44,38.91 110.44,25.96C110.44,13.01 106.28,7.33 97.58,7.33C92.82,7.33 90.47,8.75 90.47,12.05L90.47,40.57C90.47,43.92 92.98,45.74 97.91,45.74L97.91,45.73ZM126.42,12.04C126.42,9.31 124.39,7.32 122.41,7.32L122.14,7.32L122.14,6.24L137.47,6.24L137.47,7.32L137.09,7.32C134.95,7.32 132.98,9.37 132.98,12.04L132.98,32.32C132.98,35.5 133.19,38 135.01,40.39C137.14,43.23 140.08,44.71 143.71,44.71C151.45,44.71 155.46,38.91 155.46,27.44L155.46,17.1C155.46,14.32 154.82,12.33 153.16,10.4C151.4,8.35 150.33,7.33 148.99,7.33L148.72,7.33L148.72,6.25L162.77,6.25L162.77,7.33L162.34,7.33C159.78,7.33 156.41,11.53 156.41,16.19L156.41,27.32C156.41,32.32 156.2,36.41 153.9,40.27C151.34,44.59 146.85,47.03 141.36,47.03C136.55,47.03 132.28,44.76 129.29,40.67C127.21,37.83 126.41,34.14 126.41,29.25L126.41,12.04L126.42,12.04ZM126.87,9.46C127.23,10.21 127.44,10.67 127.44,11.75L127.44,29.59C127.44,39.08 132.29,44.59 140.19,45.72C133.57,43.45 130.43,38.62 130.43,30.27L130.43,11.01C130.43,9.93 130.64,9.19 131.28,8.68L132.99,7.32L125.3,7.32C125.3,7.32 126.36,8.35 126.87,9.46ZM155.67,12.503C155.772,10.316 156.591,8.738 157.6,7.32L151.73,7.32C153.516,8.787 155.721,11.3 155.67,12.503ZM261.41,25.39L261.42,24.37L264.19,24.37C266.42,24.37 267.05,23.75 268.73,22.33C270.91,20.45 272.03,18.86 272.03,17.27L272.03,16.3L273.15,16.3L273.15,33.55L272.03,33.55L272.03,32.83C272.03,28.74 268.49,25.39 263.96,25.39L261.41,25.39ZM270.92,27.38L270.92,21.7C269.63,23.01 268.29,24.03 266.78,24.88C268.29,25.56 269.69,26.41 270.92,27.38ZM222.96,25.39L222.95,24.37L225.72,24.37C227.96,24.37 228.59,23.75 230.27,22.33C232.46,20.45 233.58,18.86 233.58,17.27L233.58,16.3L234.7,16.3L234.7,33.55L233.58,33.55L233.58,32.83C233.58,28.74 230.04,25.39 225.51,25.39L222.96,25.39ZM232.45,27.38L232.45,21.7C231.17,23.01 229.82,24.03 228.31,24.88C229.82,25.56 231.22,26.41 232.45,27.38ZM209.29,45.27L209.29,46.36L192.86,46.36L192.86,45.28L193.15,45.28C195.22,45.28 195.68,42.42 193.67,39.69L183.16,25.79L178.23,25.79L178.23,40.56C178.23,43.18 180.24,45.28 182.65,45.28L183.56,45.28L183.56,46.36L166.86,46.36L166.86,45.28L167.15,45.28C169.22,45.28 171.35,43.29 171.35,40.56L171.35,12.04C171.35,9.31 169.22,7.32 167.15,7.32L166.86,7.32L166.86,6.24L185.66,6.24C188.57,6.24 191.26,6.58 193.61,7.72C197.97,9.77 200.51,13.4 200.49,16.98C200.47,22.1 196.02,25.62 190.23,25.61L200.87,39.68C202.79,42.3 206.57,45.27 208.97,45.27L209.29,45.27ZM197.47,16.81C197.47,12.66 194.39,8.8 189.52,7.55C192.55,10 194.06,13.01 194.06,16.7C194.06,20.39 192.6,23.17 190.14,24.65C194.67,24.03 197.47,20.84 197.47,16.81ZM178.24,24.65L178.25,24.64L186.34,24.64C190.76,24.64 193,21.8 193,16.52C193,11.24 189.64,7.26 184.66,7.26L183.15,7.26C181.75,7.26 180.93,7.31 180.15,8.11C178.85,9.19 178.24,10.33 178.24,11.75L178.24,24.65ZM195.368,45.26L204.69,45.26C201.37,44.06 200.11,42.29 198.94,40.7L187.68,25.78L184.24,25.78L195.07,40.06C196.108,41.267 196.478,43.828 195.368,45.26ZM178.24,7.32L170.17,7.32C170.17,7.32 171.52,8.62 171.89,9.53C172.14,10.14 172.45,10.51 172.41,11.75L172.41,41.28C172.41,42.93 171.69,44.07 170.01,45.26L177.84,45.26C176.05,43.84 175.55,43.16 175.55,41.57L175.55,11.01C175.55,9.93 175.78,9.19 176.45,8.68L178.24,7.32ZM231.17,0L239.34,0L231.94,4.07L223.77,4.07L231.17,0ZM230.42,3.06L234.24,0.99L231.14,0.99L227.32,3.06L230.42,3.06Z"></path>
            <path
              d="M152.649,95.167C152.251,95.611 151.274,96.604 150.52,97.35C148.59,99.18 146.99,100.37 145.85,100.37C144.71,100.37 144,99.84 144,97.74C144,97.47 144.04,97.24 144.04,97.05C142.78,98.2 140.42,100.37 138.83,100.37C136.68,100.37 136.18,98.61 136.18,96.89C136.18,96.288 136.268,95.725 136.385,95.115C134.695,96.679 133.418,97.617 132.19,97.69C131.74,97.72 131.93,97.3 132.32,97.23C133.49,97.022 134.139,96.568 136.674,94.172C138.944,91.671 142.334,89.74 145.22,89.74C146.48,89.74 147.03,90.58 147.03,91.61C147.03,92.03 146.99,92.41 146.9,92.64L146.98,92.72C148.49,90.54 148.41,90.05 149.29,90.01L151.31,89.93L151.32,89.94C150.14,91.24 145.26,98.04 145.26,99.37C145.26,99.68 145.43,99.9 145.98,99.9C147.24,99.9 149.51,97.91 151.95,95.32C152.367,94.878 152.464,94.749 152.537,94.718C152.996,94.196 153.982,93.235 154.76,92.45C156.57,90.69 157.87,89.78 159.05,89.78C160.1,89.78 160.69,90.66 160.69,91.58C160.69,93.11 158.88,95.7 158.04,96.74L158.12,96.82C160.35,94.45 162.41,93.19 162.79,92.16C163.21,91.05 164.09,89.79 165.57,89.79C166.28,89.79 166.58,89.98 166.58,90.4C166.58,91.89 161.87,93.04 161.87,95.67C161.87,96.43 162.5,96.97 163.26,96.97C163.93,96.97 164.6,96.7 165.15,96.21C165.761,95.658 166.113,95.205 166.331,94.96C166.345,94.876 166.544,94.694 167.59,93.59C168.68,92.44 170.58,90.69 171.21,89.89L173.86,89.74L173.86,89.75C168.81,97.31 168.01,98.3 168.01,99.11C168.01,99.76 168.43,99.91 168.81,99.91C170.16,99.91 172.09,98.38 173.48,97.08C174.329,96.309 175.36,95.21 175.817,94.762C176.084,94.442 176.664,93.919 177.5,92.97C178.47,91.86 180.91,89.49 181.16,89.38C181.25,89.34 181.63,88.23 182.55,88.23C183.05,88.23 183.26,88.46 183.26,88.8C183.26,89.53 182.33,89.75 181.58,89.98C181.5,90.36 181.41,90.48 181.41,90.86C181.41,93.69 182.29,94.53 182.29,96.09C182.29,96.986 181.816,97.73 181.163,98.369L181.22,98.42C182.61,97.54 183.53,96.51 184.25,95.75C185.14,94.87 185.14,94.68 185.3,94.68C185.43,94.68 185.51,94.76 185.51,94.91C185.51,95.02 184.63,95.98 183.78,96.82C181.51,99.15 179.53,100.37 177.18,100.37C176.21,100.37 175.83,100.33 175.28,99.95C174.94,99.72 174.61,99.07 174.61,98.65C174.61,98 174.91,97.58 175.66,97.58C176.12,97.58 176.54,97.85 176.54,98.19C176.54,98.95 175.95,98.65 175.95,99.34C175.95,99.68 176.16,99.91 176.66,99.91C178.64,99.91 180.91,95.71 180.91,93.65C180.91,91.82 180.91,90.25 181.16,90.06L181.08,89.98C180.581,90.249 177.228,93.861 176.208,94.902C175.952,95.233 175.158,96.067 173.74,97.42C171.68,99.37 169.95,100.36 168.77,100.36C167.47,100.36 166.75,99.52 166.75,98.37C166.75,95.81 169.32,93.21 170.75,91.27L170.67,91.19C170.17,91.65 169.11,92.64 167.09,94.7C166.968,94.834 166.877,94.933 166.808,95.005C166.689,95.206 166.119,95.795 165.78,96.17C164.94,97.05 164.02,97.35 163.21,97.35C162.28,97.35 161.36,96.78 161.36,95.86C161.36,94.94 161.65,94.33 162.2,93.72L162.11,93.64C159.92,95.47 157.9,97.69 155.76,100.17L153.11,100.4L153.12,100.37C157.37,94.14 159.6,91.78 159.6,90.75C159.6,90.44 159.31,90.22 158.88,90.22C158.29,90.22 157.28,90.64 155.6,92.21C153.587,94.098 152.924,94.906 152.649,95.167ZM138.84,99.91C141.284,99.895 146.53,94.406 146.53,91.58C146.53,90.82 146.11,90.21 145.23,90.21C141.82,90.21 137.87,95.94 137.87,98.69C137.87,99.416 138.157,99.905 138.83,99.91L138.84,99.91ZM147.252,72.267C142.688,75.935 141.007,79.645 136.58,87.01C133.84,91.55 125.86,100.63 117.58,100.63C113.64,100.63 111.52,98.93 111.52,97.31C111.52,96.09 112.05,95.17 113.54,95.17C114.65,95.17 115.27,95.82 115.27,96.92C115.27,97.49 114.59,98.1 114.59,98.4C114.59,99.4 116.42,100.1 117.67,100.1C130.85,100.1 132,81.07 146.57,71.99C144.07,70.86 141.09,70.42 138.3,70.42C124.02,70.42 114.3,79.24 114.3,84.82C114.3,87.4 115.55,88.66 118.39,88.66C124.3,88.66 132.81,80.11 134.4,73.82C134.49,73.51 134.64,73.17 134.79,73.17C134.94,73.17 134.98,73.26 134.98,73.56C134.98,76.62 129.3,89.36 119.3,89.36C116.41,89.36 113.72,88.36 113.72,84.91C113.72,78.63 123.63,69.9 138.53,69.9C141.51,69.9 144.64,70.51 147.33,71.56C148.39,70.82 149.88,70.08 150.36,70.08C150.5,70.08 150.6,70.17 150.6,70.3C150.6,70.52 149.93,70.47 147.91,71.83C150.7,73.14 153.1,75.89 153.1,78.86C153.1,83.36 148.43,87.02 143.63,87.02C140.79,87.02 139.35,85.67 139.35,85.49C139.35,85.36 139.54,85.18 139.69,85.18C139.93,85.18 140.37,86.31 142.91,86.31C147.67,86.31 150.41,81.16 150.41,77.67C150.41,75.184 149.553,73.615 147.252,72.267ZM176.8,82.26C177.39,82.26 177.77,82.68 177.77,83.25C177.77,83.9 177.22,84.7 176.3,84.7C175.71,84.7 175.33,84.28 175.33,83.71C175.33,83.06 175.88,82.26 176.8,82.26Z"></path>
                            </svg>